<svg width="34" height="34" viewBox="0 0 34 34" fill="none" xmlns="http://www.w3.org/2000/svg">
    <path
        d="M28.8291 12.6408L28.3103 12.3522C28.2297 12.3074 28.1901 12.2849 28.1512 12.2616C27.7643 12.0298 27.4382 11.7097 27.2003 11.3266C27.1763 11.288 27.1538 11.2476 27.1076 11.1677C27.0615 11.0879 27.0382 11.0475 27.0167 11.0075C26.8033 10.6089 26.6878 10.1648 26.6809 9.71275C26.6802 9.66731 26.6804 9.62088 26.6819 9.52856L26.6921 8.92611C26.7083 7.96203 26.7164 7.47849 26.581 7.04454C26.4606 6.65909 26.2593 6.30406 25.9904 6.00277C25.6865 5.6622 25.2659 5.41924 24.4237 4.93391L23.7241 4.53079C22.8842 4.04682 22.4642 3.80475 22.0183 3.71247C21.6238 3.63083 21.2167 3.63461 20.8237 3.72285C20.3801 3.82243 19.9653 4.07081 19.1361 4.56727L19.1314 4.56953L18.6302 4.86966C18.5509 4.91712 18.5108 4.94104 18.4711 4.96313C18.0769 5.18231 17.6368 5.30351 17.1859 5.31798C17.1405 5.31944 17.0943 5.31944 17.0019 5.31944C16.91 5.31944 16.8618 5.31944 16.8165 5.31798C16.3647 5.30345 15.9236 5.18159 15.5288 4.9615C15.489 4.93932 15.4496 4.91521 15.3702 4.86753L14.8658 4.56468C14.031 4.06352 13.613 3.81255 13.1669 3.71247C12.7722 3.62393 12.3638 3.62148 11.9679 3.70417C11.5208 3.79754 11.1007 4.0414 10.2603 4.52913L10.2566 4.53079L9.56573 4.93175L9.55809 4.93643C8.72531 5.41976 8.30792 5.66202 8.00657 6.0012C7.73916 6.30218 7.53928 6.65665 7.41965 7.04108C7.28442 7.47562 7.29162 7.9602 7.30792 8.92882L7.31804 9.53042C7.31958 9.62152 7.32223 9.66679 7.32157 9.7116C7.31486 10.1646 7.19788 10.6096 6.9838 11.0089C6.96263 11.0483 6.93982 11.0878 6.89427 11.1667C6.84867 11.2456 6.8266 11.2849 6.80296 11.323C6.56393 11.7081 6.23636 12.0301 5.84705 12.2623C5.80854 12.2852 5.76796 12.3073 5.68822 12.3515L5.176 12.6354C4.32378 13.1076 3.89777 13.344 3.58779 13.6803C3.31356 13.9779 3.1064 14.3308 2.97994 14.7152C2.837 15.1496 2.83712 15.6369 2.83933 16.6112L2.84114 17.4075C2.84334 18.3754 2.84636 18.8589 2.98962 19.2905C3.11636 19.6723 3.32201 20.0231 3.59471 20.3189C3.90294 20.6532 4.32471 20.888 5.17047 21.3585L5.67812 21.641C5.76451 21.689 5.80799 21.7127 5.84965 21.7378C6.23543 21.9701 6.56043 22.2913 6.79742 22.6742C6.82303 22.7156 6.84761 22.7585 6.89675 22.8444C6.94529 22.9292 6.97013 22.9716 6.99258 23.0141C7.20036 23.4075 7.31161 23.8446 7.3192 24.2894C7.32002 24.3375 7.31932 24.3861 7.31767 24.4838L7.30792 25.0611C7.29151 26.0331 7.28436 26.5196 7.42039 26.9553C7.54073 27.3408 7.74186 27.6958 8.01072 27.9971C8.31463 28.3377 8.73595 28.5805 9.57818 29.0658L10.2776 29.4689C11.1175 29.9528 11.5373 30.1946 11.9831 30.2869C12.3776 30.3685 12.7849 30.3654 13.178 30.2771C13.6222 30.1774 14.0384 29.9282 14.8699 29.4303L15.3712 29.1302C15.4505 29.0827 15.4906 29.0589 15.5304 29.0368C15.9246 28.8176 16.3643 28.6958 16.8151 28.6813C16.8605 28.6798 16.9067 28.6798 16.9992 28.6798C17.0918 28.6798 17.138 28.6798 17.1835 28.6813C17.6353 28.6958 18.0776 28.8181 18.4725 29.0382C18.5072 29.0575 18.542 29.0784 18.6031 29.1152L19.136 29.4351C19.9709 29.9363 20.3881 30.1865 20.8342 30.2866C21.2288 30.3752 21.6376 30.3788 22.0335 30.2961C22.4804 30.2027 22.9014 29.9584 23.7413 29.4709L24.4425 29.0639C25.2759 28.5803 25.6937 28.3378 25.9951 27.9985C26.2626 27.6975 26.4627 27.3432 26.5823 26.9588C26.7166 26.5274 26.7085 26.0465 26.6924 25.0919L26.6819 24.4693C26.6804 24.3782 26.6802 24.3328 26.6809 24.288C26.6876 23.8351 26.8027 23.3897 27.0167 22.9905C27.0379 22.951 27.0609 22.9113 27.1063 22.8326C27.1519 22.7537 27.1755 22.7144 27.1991 22.6763C27.4381 22.2912 27.766 21.9688 28.1553 21.7367C28.1934 21.714 28.2325 21.6923 28.3104 21.6492L28.313 21.6479L28.8253 21.3641C29.6775 20.8918 30.1043 20.6552 30.4143 20.3189C30.6885 20.0213 30.8954 19.6689 31.0219 19.2845C31.164 18.8526 31.1629 18.3682 31.1607 17.4053L31.1588 16.5918C31.1566 15.624 31.1554 15.1405 31.0122 14.7089C30.8854 14.3271 30.6786 13.9763 30.406 13.6805C30.098 13.3466 29.6757 13.1116 28.8315 12.642L28.8291 12.6408Z"
        stroke="white" stroke-width="2" stroke-linecap="round" stroke-linejoin="round" />
    <path
        d="M11.3338 16.9999C11.3338 20.1296 13.8709 22.6666 17.0005 22.6666C20.1301 22.6666 22.6671 20.1296 22.6671 16.9999C22.6671 13.8703 20.1301 11.3333 17.0005 11.3333C13.8709 11.3333 11.3338 13.8703 11.3338 16.9999Z"
        stroke="white" stroke-width="2" stroke-linecap="round" stroke-linejoin="round" />
</svg>