<svg width="34" height="34" viewBox="0 0 34 34" fill="none" xmlns="http://www.w3.org/2000/svg">
    <path
        d="M24.0833 24.0833C22.5185 24.0833 21.25 25.3519 21.25 26.9167C21.25 28.4815 22.5185 29.75 24.0833 29.75C25.6481 29.75 26.9167 28.4815 26.9167 26.9167C26.9167 25.3519 25.6481 24.0833 24.0833 24.0833ZM24.0833 24.0833H13.1664C12.5133 24.0833 12.1861 24.0833 11.9172 23.9671C11.6799 23.8646 11.4741 23.6996 11.3242 23.4891C11.1561 23.2532 11.0885 22.9377 10.9547 22.3132L7.46794 6.04159C7.33102 5.40265 7.26165 5.08353 7.09163 4.84489C6.94169 4.63441 6.73592 4.46875 6.4987 4.36624C6.22973 4.25 5.90437 4.25 5.25092 4.25H4.25M8.5 8.5H26.7371C27.7596 8.5 28.2703 8.5 28.6135 8.71301C28.9141 8.89959 29.1342 9.19221 29.2301 9.53276C29.3397 9.92153 29.199 10.4124 28.9156 11.3949L26.954 18.1949C26.7846 18.7823 26.6998 19.0755 26.5279 19.2934C26.3762 19.4858 26.176 19.6364 25.9491 19.7289C25.6928 19.8333 25.3882 19.8333 24.7805 19.8333H10.9515M11.3333 29.75C9.76853 29.75 8.5 28.4815 8.5 26.9167C8.5 25.3519 9.76853 24.0833 11.3333 24.0833C12.8981 24.0833 14.1667 25.3519 14.1667 26.9167C14.1667 28.4815 12.8981 29.75 11.3333 29.75Z"
        stroke="white" stroke-width="2" stroke-linecap="round" stroke-linejoin="round" />
</svg>