<svg width="60" height="60" viewBox="0 0 60 60" fill="none" xmlns="http://www.w3.org/2000/svg">
<g clip-path="url(#clip0_150_245)">
<path d="M35.093 52.3275L34.1209 48.1183L29.8649 49.1013L24.8747 27.494L29.1306 26.5111L28.1477 22.2551L41.3365 19.2091L42.3195 23.4651L46.6222 22.4714L48.6745 31.3575L43.904 32.4592L41.9598 24.0408L29.7063 26.8708L34.4805 47.5426L46.734 44.7127L44.7681 36.2007L49.5386 35.099L51.6124 44.0786L47.3097 45.0723L48.2818 49.2815L35.093 52.3275Z" fill="#6976EB" fill-opacity="0.59"/>
<path d="M11.056 39.576V34.728H12.88V8.712H30.784V13.08H35.2V17.88H30.304V13.56H17.728V21.768H26.464V26.52H17.728V34.728H19.84V39.576H11.056Z" fill="#6976EB" fill-opacity="0.59"/>
<path d="M21.7863 46.1792C23.5618 47.5725 25.8767 50.2125 25.8767 53.2375C25.8767 56.2625 23.4872 58.4167 20.5417 58.4167C17.5962 58.4167 15.215 56.2992 15.215 53.2375C15.215 50.1758 17.5216 47.5725 19.2971 46.1792L17.4137 43.2917C17.3291 43.0974 17.302 42.8786 17.3363 42.6664C17.3705 42.4541 17.4644 42.2592 17.6045 42.1092C17.7375 41.9562 17.9143 41.8588 18.105 41.8338C18.2956 41.8087 18.4882 41.8574 18.65 41.9717C18.8066 42.0703 18.9907 42.1015 19.1668 42.0592C19.343 42.0169 19.4988 41.9041 19.6041 41.7425L19.7867 41.4675C19.8687 41.3277 19.9804 41.2122 20.1119 41.1307C20.2435 41.0493 20.391 41.0044 20.5417 41C20.6907 41.0003 20.8374 41.0395 20.9701 41.1144C21.1027 41.1893 21.2175 41.2977 21.305 41.4308L21.4876 41.7058C21.593 41.8674 21.7487 41.9802 21.9249 42.0226C22.101 42.0649 22.2851 42.0337 22.4417 41.935C22.6035 41.8208 22.7961 41.772 22.9867 41.7971C23.1774 41.8222 23.3542 41.9195 23.4872 42.0725C23.6357 42.2246 23.7342 42.4269 23.7673 42.6476C23.8003 42.8683 23.766 43.0949 23.6697 43.2917L21.7863 46.1792Z" stroke="#6976EB" stroke-opacity="0.59" stroke-linecap="round" stroke-linejoin="round"/>
<path d="M17.6377 46.0416H23.4457" stroke="#6976EB" stroke-opacity="0.59" stroke-linecap="round" stroke-linejoin="round"/>
<path d="M14.3188 57.0417C13.4386 57.0417 12.5945 56.6554 11.9721 55.9677C11.3497 55.2801 11 54.3475 11 53.375C11.0361 52.2648 11.3201 51.1817 11.8268 50.2221C12.3335 49.2625 13.047 48.4562 13.904 47.875L12.8751 45.8858C12.8161 45.7831 12.7848 45.6638 12.7848 45.5421C12.7848 45.4204 12.8161 45.3011 12.8751 45.1983C12.9417 45.0989 13.0322 45.0221 13.1364 44.9767C13.2405 44.9313 13.3541 44.9192 13.4642 44.9417C14.0119 45.0634 14.576 45.0634 15.1237 44.9417C15.2338 44.9192 15.3474 44.9313 15.4515 44.9767C15.5557 45.0221 15.6462 45.0989 15.7128 45.1983C15.7718 45.3011 15.8031 45.4204 15.8031 45.5421C15.8031 45.6638 15.7718 45.7831 15.7128 45.8858L14.7337 47.875" stroke="#6976EB" stroke-opacity="0.59" stroke-linecap="round" stroke-linejoin="round"/>
<path d="M12.6594 47.875H14.7337" stroke="#6976EB" stroke-opacity="0.59" stroke-linecap="round" stroke-linejoin="round"/>
<path d="M26.7644 57.0417C27.6446 57.0417 28.4888 56.6554 29.1112 55.9677C29.7336 55.2801 30.0833 54.3475 30.0833 53.375C30.0472 52.2648 29.7631 51.1817 29.2565 50.2221C28.7498 49.2625 28.0362 48.4562 27.1793 47.875L28.2081 45.8858C28.2672 45.7831 28.2985 45.6638 28.2985 45.5421C28.2985 45.4204 28.2672 45.3011 28.2081 45.1983C28.1416 45.0989 28.0511 45.0221 27.9469 44.9767C27.8427 44.9313 27.7291 44.9192 27.619 44.9417C27.0714 45.0634 26.5073 45.0634 25.9596 44.9417C25.8495 44.9192 25.7359 44.9313 25.6318 44.9767C25.5276 45.0221 25.4371 45.0989 25.3705 45.1983C25.3115 45.3011 25.2802 45.4204 25.2802 45.5421C25.2802 45.6638 25.3115 45.7831 25.3705 45.8858L26.3496 47.875" stroke="#6976EB" stroke-opacity="0.59" stroke-linecap="round" stroke-linejoin="round"/>
<path d="M28.4239 47.875H26.3496" stroke="#6976EB" stroke-opacity="0.59" stroke-linecap="round" stroke-linejoin="round"/>
<path d="M20.5416 54.75V55.6667" stroke="#6976EB" stroke-opacity="0.59" stroke-linecap="round" stroke-linejoin="round"/>
<path d="M20.5416 50.1666V51.0833" stroke="#6976EB" stroke-opacity="0.59" stroke-linecap="round" stroke-linejoin="round"/>
<path d="M18.8822 54.75H21.3713C21.5914 54.75 21.8024 54.6535 21.958 54.4816C22.1136 54.3096 22.201 54.0765 22.201 53.8334C22.201 53.5903 22.1136 53.3571 21.958 53.1852C21.8024 53.0133 21.5914 52.9167 21.3713 52.9167H19.7119C19.4919 52.9167 19.2808 52.8201 19.1252 52.6482C18.9696 52.4763 18.8822 52.2432 18.8822 52C18.8822 51.7569 18.9696 51.5238 19.1252 51.3519C19.2808 51.18 19.4919 51.0834 19.7119 51.0834H22.201" stroke="#6976EB" stroke-opacity="0.59" stroke-linecap="round" stroke-linejoin="round"/>
</g>
<defs>
<clipPath id="clip0_150_245">
<rect width="60" height="60" fill="white"/>
</clipPath>
</defs>
</svg>
